<?xml version="1.0" standalone="no"?>
<!DOCTYPE svg PUBLIC "-//W3C//DTD SVG 20010904//EN"
 "http://www.w3.org/TR/2001/REC-SVG-20010904/DTD/svg10.dtd">
<svg version="1.0" xmlns="http://www.w3.org/2000/svg"
 width="256.000000pt" height="256.000000pt" viewBox="0 0 256.000000 256.000000"
 preserveAspectRatio="xMidYMid meet">
<metadata>
Created by potrace 1.11, written by Peter Selinger 2001-2013
</metadata>
<g transform="translate(0.000000,256.000000) scale(0.100000,-0.100000)"
fill="#000000" stroke="none">
<path d="M1096 2454 c-296 -53 -570 -224 -754 -470 -59 -79 -141 -239 -171
-333 -71 -221 -77 -473 -16 -690 94 -333 323 -606 637 -756 336 -161 757 -153
1086 20 306 160 513 476 559 851 14 109 6 395 -11 423 -2 3 -255 6 -563 6
l-558 0 -3 -232 c-2 -183 0 -233 10 -234 7 0 153 -2 323 -2 l310 -2 -3 -30
c-1 -16 -21 -68 -43 -114 -137 -289 -522 -414 -861 -280 -121 47 -256 163
-330 280 -224 356 -97 836 273 1029 242 126 524 105 732 -54 26 -20 51 -36 55
-36 4 0 82 75 172 166 l165 165 -35 30 c-166 140 -386 239 -594 268 -105 15
-284 12 -380 -5z"/>
</g>
</svg>
